# xmcd CD database file
#
# Track frame offsets:
#	150
#	21689
#	41335
#	63901
#	85045
#	101829
#	119915
#	137682
#	157537
#	173805
#	200736
#	222582
#	243274
#	261850
#	278482
#
# Disc length: 3908 seconds
#
# Revision: 0
# Processed by: cddbd v1.5.1PL0 Copyright (c) Steve Scherf et al.
# Submitted via: CDex 1.51
#
DISCID=d70f420f
DTITLE=Mystic Music - All mix
DYEAR=2004
DGENRE=New Age
TTITLE0=Book of Memories
TTITLE1=Sadeness
TTITLE2=I still haven't found what I'm looking for
TTITLE3=Omen Sore
TTITLE4=Adiemus
TTITLE5=Moment of Piece
TTITLE6=Divano
TTITLE7=Secret Call
TTITLE8=Only Time
TTITLE9=Sacral Nirvana
TTITLE10=Sentence
TTITLE11=Amoure
TTITLE12=Mother Remix
TTITLE13=Sound of Silence
TTITLE14=Era
EXTD=YEAR: 2004
EXTT0=
EXTT1=
EXTT2=
EXTT3=
EXTT4=
EXTT5=
EXTT6=
EXTT7=
EXTT8=
EXTT9=
EXTT10=
EXTT11=
EXTT12=
EXTT13=
EXTT14=
PLAYORDER=
